<svg viewBox="0 0 940 1310" xmlns="http://www.w3.org/2000/svg" role="img" font-family="ui-monospace,monospace" font-size="12">
  <title>Platform-XP-EKS Composition Flowchart</title>
  <desc>Crossplane XRD composition pipeline for self-service EKS clusters</desc>
  <defs>
    <marker id="arr" markerWidth="8" markerHeight="8" refX="6" refY="3" orient="auto"><path d="M0,0 L0,6 L8,3 z" fill="#94a3b8"/></marker>
    <marker id="arr-r" markerWidth="8" markerHeight="8" refX="6" refY="3" orient="auto"><path d="M0,0 L0,6 L8,3 z" fill="#f87171"/></marker>
  </defs>
  <rect width="940" height="1310" fill="#0f172a"/>

  <!-- INPUTS -->
  <text x="22" y="20" font-size="10" font-weight="600" fill="#475569" letter-spacing="1.5">INPUTS</text>
  <line x1="22" y1="26" x2="918" y2="26" stroke="#1e293b" stroke-width="1.5"/>

  <!-- Required box -->
  <rect x="38" y="34" width="418" height="162" rx="8" fill="#1e293b" stroke="#334155" stroke-width="1.5"/>
  <text x="247" y="51" text-anchor="middle" font-size="10" font-weight="600" fill="#64748b" letter-spacing="1">REQUIRED</text>
  <line x1="48" y1="57" x2="446" y2="57" stroke="#334155" stroke-width="1"/>
  <text x="55" y="72" fill="#e2e8f0" font-size="11" font-weight="600">buId</text>
  <text x="55" y="84" fill="#64748b" font-size="10">string · BU\d{3}</text>
  <text x="248" y="72" fill="#e2e8f0" font-size="11" font-weight="600">awsAccountId</text>
  <text x="248" y="84" fill="#64748b" font-size="10">string · 12-digit</text>
  <text x="55" y="98" fill="#e2e8f0" font-size="11" font-weight="600">region</text>
  <text x="55" y="110" fill="#64748b" font-size="10">string · AWS region</text>
  <text x="248" y="98" fill="#e2e8f0" font-size="11" font-weight="600">env</text>
  <text x="248" y="110" fill="#64748b" font-size="10">dev | staging | prod</text>
  <text x="55" y="124" fill="#e2e8f0" font-size="11" font-weight="600">friendlyName</text>
  <text x="55" y="136" fill="#64748b" font-size="10">cluster = {name}-eks</text>
  <text x="248" y="124" fill="#e2e8f0" font-size="11" font-weight="600">vpcId</text>
  <text x="248" y="136" fill="#64748b" font-size="10">from UNetwork.status</text>
  <text x="55" y="150" fill="#e2e8f0" font-size="11" font-weight="600">subnetIds[]</text>
  <text x="55" y="162" fill="#64748b" font-size="10">EKS node subnets</text>
  <text x="248" y="150" fill="#e2e8f0" font-size="11" font-weight="600">subnetCidrs[]</text>
  <text x="248" y="162" fill="#64748b" font-size="10">for SGIngressRules</text>
  <text x="55" y="176" fill="#e2e8f0" font-size="11" font-weight="600">nodeSecurityGroupId</text>
  <text x="248" y="176" fill="#e2e8f0" font-size="11" font-weight="600">controlPlaneSecurityGroupId</text>
  <text x="55" y="188" fill="#64748b" font-size="10">from UNetwork.status</text>
  <text x="248" y="188" fill="#64748b" font-size="10">from UNetwork.status</text>

  <!-- Optional box -->
  <rect x="480" y="34" width="420" height="162" rx="8" fill="#1e293b" stroke="#334155" stroke-width="1.5"/>
  <text x="690" y="51" text-anchor="middle" font-size="10" font-weight="600" fill="#64748b" letter-spacing="1">OPTIONAL</text>
  <line x1="490" y1="57" x2="890" y2="57" stroke="#334155" stroke-width="1"/>
  <text x="497" y="72" fill="#e2e8f0" font-size="11" font-weight="600">kubernetesVersion</text>
  <text x="497" y="84" fill="#64748b" font-size="10">string · default: 1.32</text>
  <text x="700" y="72" fill="#e2e8f0" font-size="11" font-weight="600">endpointAccessType</text>
  <text x="700" y="84" fill="#64748b" font-size="10">private|private_w_cidrs|public</text>
  <text x="497" y="98" fill="#e2e8f0" font-size="11" font-weight="600">endpointPublicAccessCidrs</text>
  <text x="497" y="110" fill="#64748b" font-size="10">string[] · when non-private</text>
  <text x="700" y="98" fill="#e2e8f0" font-size="11" font-weight="600">nodeInstanceType</text>
  <text x="700" y="110" fill="#64748b" font-size="10">string · default: t3.medium</text>
  <text x="497" y="124" fill="#e2e8f0" font-size="11" font-weight="600">nodeAmiId</text>
  <text x="497" y="136" fill="#64748b" font-size="10">string · explicit AMI (optional)</text>
  <text x="700" y="124" fill="#e2e8f0" font-size="11" font-weight="600">min / max / desiredSize</text>
  <text x="700" y="136" fill="#64748b" font-size="10">int · default: 2 / 3 / 2</text>
  <text x="497" y="150" fill="#e2e8f0" font-size="11" font-weight="600">maxPodsPerNode</text>
  <text x="497" y="162" fill="#64748b" font-size="10">int · default: 30</text>
  <text x="700" y="150" fill="#e2e8f0" font-size="11" font-weight="600">enableIstio</text>
  <text x="700" y="162" fill="#64748b" font-size="10">bool · default: false</text>
  <text x="497" y="176" fill="#e2e8f0" font-size="11" font-weight="600">iamPermissionsBoundaryArn</text>
  <text x="700" y="176" fill="#e2e8f0" font-size="11" font-weight="600">tags</text>
  <text x="497" y="188" fill="#64748b" font-size="10">string · optional ARN</text>
  <text x="700" y="188" fill="#64748b" font-size="10">map · optional</text>

  <!-- Arrow inputs → claim -->
  <line x1="470" y1="196" x2="470" y2="211" stroke="#94a3b8" stroke-width="1.2" marker-end="url(#arr)"/>

  <!-- CLAIM -->
  <text x="22" y="223" font-size="10" font-weight="600" fill="#475569" letter-spacing="1.5">CLAIM</text>
  <line x1="22" y1="229" x2="918" y2="229" stroke="#1e293b" stroke-width="1.5"/>
  <rect x="270" y="236" width="400" height="62" rx="8" fill="#1e1b4b" stroke="#818cf8" stroke-width="2"/>
  <text x="470" y="259" text-anchor="middle" font-weight="700" font-size="13" fill="#a5b4fc">UEksCluster Claim</text>
  <text x="470" y="276" text-anchor="middle" fill="#94a3b8" font-size="10">apiVersion: eks.platform.urukube.io/v1alpha1  ·  kind: UEksCluster</text>
  <line x1="470" y1="298" x2="470" y2="316" stroke="#94a3b8" stroke-width="1.2" marker-end="url(#arr)"/>

  <!-- STEP 1 -->
  <text x="22" y="328" font-size="10" font-weight="600" fill="#475569" letter-spacing="1.5">PIPELINE · STEP 1</text>
  <line x1="22" y1="334" x2="918" y2="334" stroke="#1e293b" stroke-width="1.5"/>
  <rect x="38" y="342" width="155" height="62" rx="6" fill="#1e293b" stroke="#334155" stroke-width="1.2"/>
  <text x="116" y="362" text-anchor="middle" font-weight="600" fill="#e2e8f0" font-size="11">org-defaults</text>
  <text x="116" y="377" text-anchor="middle" fill="#94a3b8" font-size="10">EnvironmentConfig</text>
  <text x="116" y="391" text-anchor="middle" fill="#64748b" font-size="10">static reference</text>
  <rect x="208" y="342" width="162" height="62" rx="6" fill="#1e293b" stroke="#334155" stroke-width="1.2"/>
  <text x="289" y="362" text-anchor="middle" font-weight="600" fill="#e2e8f0" font-size="11">BU-specific config</text>
  <text x="289" y="377" text-anchor="middle" fill="#94a3b8" font-size="10">EnvironmentConfig</text>
  <text x="289" y="391" text-anchor="middle" fill="#64748b" font-size="10">label: bu-id=buId</text>
  <rect x="490" y="336" width="378" height="74" rx="8" fill="#1c1a0e" stroke="#d97706" stroke-width="2"/>
  <text x="679" y="360" text-anchor="middle" font-weight="700" font-size="12" fill="#fbbf24">function-environment-configs  v0.6.0</text>
  <text x="679" y="377" text-anchor="middle" fill="#94a3b8" font-size="10">merge org-defaults + BU config</text>
  <text x="679" y="392" text-anchor="middle" fill="#64748b" font-size="10">outputs: costCenter · ownerEmail · orgName · complianceScope · managedBy</text>
  <line x1="370" y1="373" x2="488" y2="373" stroke="#94a3b8" stroke-width="1.2" marker-end="url(#arr)"/>
  <line x1="116" y1="404" x2="116" y2="428" stroke="#94a3b8" stroke-width="1" stroke-dasharray="4,3"/>
  <line x1="116" y1="428" x2="488" y2="428" stroke="#94a3b8" stroke-width="1" stroke-dasharray="4,3" marker-end="url(#arr)"/>
  <line x1="679" y1="410" x2="679" y2="446" stroke="#94a3b8" stroke-width="1.2"/>
  <line x1="679" y1="446" x2="470" y2="446" stroke="#94a3b8" stroke-width="1.2"/>
  <line x1="470" y1="446" x2="470" y2="462" stroke="#94a3b8" stroke-width="1.2" marker-end="url(#arr)"/>

  <!-- STEP 2 -->
  <text x="22" y="474" font-size="10" font-weight="600" fill="#475569" letter-spacing="1.5">PIPELINE · STEP 2</text>
  <line x1="22" y1="480" x2="918" y2="480" stroke="#1e293b" stroke-width="1.5"/>
  <rect x="188" y="488" width="370" height="58" rx="8" fill="#1c1a0e" stroke="#d97706" stroke-width="2"/>
  <text x="373" y="512" text-anchor="middle" font-weight="700" font-size="12" fill="#fbbf24">function-patch-and-transform  v0.10.7</text>
  <text x="373" y="529" text-anchor="middle" fill="#64748b" font-size="10">creates ProviderConfig only (IRSA cross-account role chain)</text>
  <line x1="558" y1="517" x2="594" y2="517" stroke="#94a3b8" stroke-width="1.2" marker-end="url(#arr)"/>
  <rect x="596" y="488" width="166" height="58" rx="6" fill="#0f1f18" stroke="#34d399" stroke-width="2"/>
  <text x="679" y="512" text-anchor="middle" font-weight="700" font-size="11" fill="#6ee7b7">ProviderConfig</text>
  <text x="679" y="527" text-anchor="middle" fill="#64748b" font-size="10">IRSA → urukube-crossplane-role</text>
  <line x1="470" y1="546" x2="470" y2="562" stroke="#94a3b8" stroke-width="1.2" marker-end="url(#arr)"/>

  <!-- STEP 3 -->
  <text x="22" y="574" font-size="10" font-weight="600" fill="#475569" letter-spacing="1.5">PIPELINE · STEP 3</text>
  <line x1="22" y1="580" x2="918" y2="580" stroke="#1e293b" stroke-width="1.5"/>
  <rect x="250" y="588" width="440" height="58" rx="8" fill="#1c1a0e" stroke="#d97706" stroke-width="2"/>
  <text x="470" y="612" text-anchor="middle" font-weight="700" font-size="12" fill="#fbbf24">function-go-templating  v0.7.0</text>
  <text x="470" y="629" text-anchor="middle" fill="#64748b" font-size="10">generates all EKS resources via inline Go template</text>

  <!-- Conditional notes row -->
  <rect x="38" y="658" width="202" height="66" rx="6" fill="#1a0808" stroke="#f87171" stroke-width="1.5"/>
  <text x="139" y="676" text-anchor="middle" font-size="10" font-weight="600" fill="#fca5a5">endpointAccessType</text>
  <text x="139" y="690" text-anchor="middle" fill="#64748b" font-size="10">private: no public endpoint</text>
  <text x="139" y="703" text-anchor="middle" fill="#64748b" font-size="10">private_w_cidrs: restricted public</text>
  <text x="139" y="716" text-anchor="middle" fill="#64748b" font-size="10">public: open 0.0.0.0/0</text>
  <rect x="252" y="658" width="202" height="66" rx="6" fill="#1a0808" stroke="#f87171" stroke-width="1.5"/>
  <text x="353" y="676" text-anchor="middle" font-size="10" font-weight="600" fill="#fca5a5">iamPermissionsBoundaryArn</text>
  <text x="353" y="693" text-anchor="middle" fill="#64748b" font-size="10">if provided → injected into</text>
  <text x="353" y="706" text-anchor="middle" fill="#64748b" font-size="10">NodeRole permissionsBoundary</text>
  <rect x="466" y="658" width="202" height="66" rx="6" fill="#1a0808" stroke="#f87171" stroke-width="1.5"/>
  <text x="567" y="676" text-anchor="middle" font-size="10" font-weight="600" fill="#fca5a5">nodeAmiId</text>
  <text x="567" y="693" text-anchor="middle" fill="#64748b" font-size="10">if provided → set imageId</text>
  <text x="567" y="706" text-anchor="middle" fill="#64748b" font-size="10">on LaunchTemplate</text>
  <rect x="680" y="658" width="222" height="66" rx="6" fill="#1a0808" stroke="#f87171" stroke-width="1.5"/>
  <text x="791" y="676" text-anchor="middle" font-size="10" font-weight="600" fill="#fca5a5">cluster Ready</text>
  <text x="791" y="693" text-anchor="middle" fill="#64748b" font-size="10">→ generate SGIngressRules</text>
  <text x="791" y="706" text-anchor="middle" fill="#64748b" font-size="10">×N per subnetCidrs</text>

  <line x1="470" y1="646" x2="470" y2="658" stroke="#94a3b8" stroke-width="1.2" marker-end="url(#arr)"/>

  <!-- Fan from step3 to resources -->
  <line x1="157" y1="724" x2="157" y2="764" stroke="#334155" stroke-width="1" stroke-dasharray="3,3" marker-end="url(#arr)"/>
  <line x1="370" y1="724" x2="370" y2="764" stroke="#334155" stroke-width="1" stroke-dasharray="3,3" marker-end="url(#arr)"/>
  <line x1="567" y1="724" x2="567" y2="764" stroke="#334155" stroke-width="1" stroke-dasharray="3,3" marker-end="url(#arr)"/>
  <line x1="791" y1="724" x2="791" y2="764" stroke="#f87171" stroke-width="1" stroke-dasharray="3,3" marker-end="url(#arr-r)"/>

  <!-- COMPOSED RESOURCES -->
  <text x="22" y="748" font-size="10" font-weight="600" fill="#475569" letter-spacing="1.5">COMPOSED RESOURCES</text>
  <line x1="22" y1="754" x2="918" y2="754" stroke="#1e293b" stroke-width="1.5"/>

  <!-- IAM group box -->
  <rect x="38" y="764" width="268" height="270" rx="8" fill="#0f1f18" stroke="#34d399" stroke-width="2"/>
  <text x="172" y="784" text-anchor="middle" font-weight="700" font-size="11" fill="#6ee7b7">IAM Resources</text>
  <line x1="48" y1="791" x2="296" y2="791" stroke="#1e293b" stroke-width="1"/>
  <text x="172" y="808" text-anchor="middle" fill="#94a3b8" font-size="10" font-weight="600">NodeRole</text>
  <text x="172" y="821" text-anchor="middle" fill="#64748b" font-size="10">EC2 assume role trust policy</text>
  <text x="172" y="834" text-anchor="middle" fill="#64748b" font-size="10">iam.aws.upbound.io/v1beta1/Role</text>
  <line x1="48" y1="841" x2="296" y2="841" stroke="#1e293b" stroke-width="1" stroke-dasharray="3,2"/>
  <text x="172" y="856" text-anchor="middle" fill="#94a3b8" font-size="10" font-weight="600">InstanceProfile</text>
  <text x="172" y="869" text-anchor="middle" fill="#64748b" font-size="10">binds NodeRole via matchControllerRef</text>
  <line x1="48" y1="876" x2="296" y2="876" stroke="#1e293b" stroke-width="1" stroke-dasharray="3,2"/>
  <text x="172" y="891" text-anchor="middle" fill="#94a3b8" font-size="10" font-weight="600">RolePolicyAttachments ×5</text>
  <text x="172" y="905" text-anchor="middle" fill="#64748b" font-size="10">AmazonEKSWorkerNodePolicy</text>
  <text x="172" y="918" text-anchor="middle" fill="#64748b" font-size="10">AmazonEKS_CNI_Policy</text>
  <text x="172" y="931" text-anchor="middle" fill="#64748b" font-size="10">AmazonEC2ContainerRegistryReadOnly</text>
  <text x="172" y="944" text-anchor="middle" fill="#64748b" font-size="10">AmazonSSMManagedInstanceCore</text>
  <text x="172" y="957" text-anchor="middle" fill="#64748b" font-size="10">CloudWatchAgentServerPolicy</text>
  <text x="172" y="978" text-anchor="middle" fill="#64748b" font-size="10" font-style="italic">iam.aws.upbound.io/v1beta1</text>
  <text x="172" y="991" text-anchor="middle" fill="#64748b" font-size="10" font-style="italic">RolePolicyAttachment</text>
  <text x="172" y="1025" text-anchor="middle" fill="#64748b" font-size="10" font-style="italic">all select NodeRole via</text>
  <text x="172" y="1038" text-anchor="middle" fill="#64748b" font-size="10" font-style="italic">matchLabels: role-for=eks-nodes</text>

  <!-- EKS Cluster box -->
  <rect x="322" y="764" width="274" height="150" rx="8" fill="#0f1f18" stroke="#34d399" stroke-width="2"/>
  <text x="459" y="784" text-anchor="middle" font-weight="700" font-size="11" fill="#6ee7b7">EKS Cluster</text>
  <text x="459" y="799" text-anchor="middle" fill="#94a3b8" font-size="10">eks.aws.upbound.io/v1beta2/Cluster</text>
  <line x1="332" y1="806" x2="586" y2="806" stroke="#1e293b" stroke-width="1"/>
  <text x="459" y="821" text-anchor="middle" fill="#64748b" font-size="10">name: {friendlyName}-eks</text>
  <text x="459" y="835" text-anchor="middle" fill="#64748b" font-size="10">version ← kubernetesVersion</text>
  <text x="459" y="849" text-anchor="middle" fill="#64748b" font-size="10">vpcConfig ← subnetIds + SG IDs</text>
  <text x="459" y="863" text-anchor="middle" fill="#64748b" font-size="10">endpoint access ← endpointAccessType</text>
  <text x="459" y="877" text-anchor="middle" fill="#64748b" font-size="10">logs: api,audit,authenticator,ctrl,sched</text>
  <text x="459" y="891" text-anchor="middle" fill="#64748b" font-size="10">authMode: API_AND_CONFIG_MAP</text>
  <text x="459" y="905" text-anchor="middle" fill="#6ee7b7" font-size="10" font-style="italic">parent for addons</text>

  <!-- kube-proxy addon -->
  <rect x="322" y="928" width="274" height="60" rx="8" fill="#0f1f18" stroke="#34d399" stroke-width="2"/>
  <text x="459" y="948" text-anchor="middle" font-weight="700" font-size="11" fill="#6ee7b7">kube-proxy Addon</text>
  <text x="459" y="963" text-anchor="middle" fill="#94a3b8" font-size="10">eks.aws.upbound.io/v1beta1/Addon</text>
  <text x="459" y="977" text-anchor="middle" fill="#64748b" font-size="10">OVERWRITE on create + update</text>

  <!-- LaunchTemplate box -->
  <rect x="614" y="764" width="284" height="164" rx="8" fill="#0f1f18" stroke="#34d399" stroke-width="2"/>
  <text x="756" y="784" text-anchor="middle" font-weight="700" font-size="11" fill="#6ee7b7">LaunchTemplate</text>
  <text x="756" y="799" text-anchor="middle" fill="#94a3b8" font-size="10">ec2.aws.upbound.io/v1beta1</text>
  <line x1="624" y1="806" x2="888" y2="806" stroke="#1e293b" stroke-width="1"/>
  <text x="756" y="821" text-anchor="middle" fill="#64748b" font-size="10">instanceType ← nodeInstanceType</text>
  <text x="756" y="835" text-anchor="middle" fill="#64748b" font-size="10">imageId ← nodeAmiId (optional)</text>
  <text x="756" y="849" text-anchor="middle" fill="#64748b" font-size="10">userData: AL2023 nodeadm YAML</text>
  <text x="756" y="863" text-anchor="middle" fill="#64748b" font-size="10">maxPods ← maxPodsPerNode</text>
  <text x="756" y="877" text-anchor="middle" fill="#64748b" font-size="10">IMDSv2 enforced (httpTokens: required)</text>
  <text x="756" y="891" text-anchor="middle" fill="#64748b" font-size="10">EBS: 50GB gp3 encrypted</text>
  <text x="756" y="905" text-anchor="middle" fill="#64748b" font-size="10">networkIf: no public IP, nodeSecurityGroup</text>
  <text x="756" y="919" text-anchor="middle" fill="#64748b" font-size="10">iamInstanceProfile ← matchControllerRef</text>

  <!-- ASG box -->
  <rect x="614" y="940" width="284" height="110" rx="8" fill="#0f1f18" stroke="#34d399" stroke-width="2"/>
  <text x="756" y="960" text-anchor="middle" font-weight="700" font-size="11" fill="#6ee7b7">AutoscalingGroup</text>
  <text x="756" y="975" text-anchor="middle" fill="#94a3b8" font-size="10">autoscaling.aws.upbound.io/v1beta3</text>
  <line x1="624" y1="982" x2="888" y2="982" stroke="#1e293b" stroke-width="1"/>
  <text x="756" y="997" text-anchor="middle" fill="#64748b" font-size="10">min/max/desired ← params</text>
  <text x="756" y="1011" text-anchor="middle" fill="#64748b" font-size="10">vpcZoneIdentifier ← subnetIds</text>
  <text x="756" y="1025" text-anchor="middle" fill="#64748b" font-size="10">launchTemplate ← matchControllerRef</text>
  <text x="756" y="1039" text-anchor="middle" fill="#64748b" font-size="10">ASG tags: cluster-autoscaler discovery</text>

  <!-- Conditional SGIngressRules -->
  <rect x="38" y="1065" width="860" height="52" rx="8" fill="#1a0808" stroke="#f87171" stroke-width="2" stroke-dasharray="6,3"/>
  <text x="470" y="1086" text-anchor="middle" font-weight="700" font-size="11" fill="#fca5a5">SecurityGroupIngressRules ×N  (conditional — only after cluster Ready)</text>
  <text x="470" y="1103" text-anchor="middle" fill="#64748b" font-size="10">ec2.aws.upbound.io/v1beta1 · one rule per subnetCidr · HTTPS 443 → cluster primary SG · generated via observed state</text>

  <!-- STATUS OUTPUTS -->
  <text x="22" y="1132" font-size="10" font-weight="600" fill="#475569" letter-spacing="1.5">STATUS OUTPUTS</text>
  <line x1="22" y1="1138" x2="918" y2="1138" stroke="#1e293b" stroke-width="1.5"/>
  <rect x="38" y="1146" width="860" height="56" rx="8" fill="#0c1a2e" stroke="#38bdf8" stroke-width="1.5"/>
  <text x="95" y="1166" text-anchor="middle" fill="#7dd3fc" font-size="10" font-weight="600">clusterName</text>
  <text x="95" y="1179" text-anchor="middle" fill="#64748b" font-size="10">string</text>
  <text x="250" y="1166" text-anchor="middle" fill="#7dd3fc" font-size="10" font-weight="600">clusterEndpoint</text>
  <text x="250" y="1179" text-anchor="middle" fill="#64748b" font-size="10">API server URL</text>
  <text x="470" y="1166" text-anchor="middle" fill="#7dd3fc" font-size="10" font-weight="600">oidcProviderArn</text>
  <text x="470" y="1179" text-anchor="middle" fill="#64748b" font-size="10">for IRSA role creation</text>
  <text x="690" y="1166" text-anchor="middle" fill="#7dd3fc" font-size="10" font-weight="600">oidcIssuerUrl</text>
  <text x="690" y="1179" text-anchor="middle" fill="#64748b" font-size="10">OIDC issuer</text>
  <text x="858" y="1166" text-anchor="middle" fill="#7dd3fc" font-size="10" font-weight="600">clusterCA</text>
  <text x="858" y="1179" text-anchor="middle" fill="#64748b" font-size="10">base64 CA data</text>

  <!-- LEGEND -->
  <rect x="38" y="1218" width="868" height="52" rx="6" fill="#1e293b" stroke="#334155" stroke-width="1"/>
  <line x1="56" y1="1245" x2="86" y2="1245" stroke="#94a3b8" stroke-width="1.2" marker-end="url(#arr)"/>
  <text x="94" y="1249" fill="#94a3b8" font-size="10">data flow</text>
  <line x1="155" y1="1245" x2="185" y2="1245" stroke="#475569" stroke-width="1.2" stroke-dasharray="4,3" marker-end="url(#arr)"/>
  <text x="193" y="1249" fill="#94a3b8" font-size="10">fan-out to resources</text>
  <rect x="308" y="1236" width="12" height="12" rx="2" fill="none" stroke="#818cf8" stroke-width="2"/>
  <text x="326" y="1247" fill="#94a3b8" font-size="10">claim</text>
  <rect x="367" y="1236" width="12" height="12" rx="2" fill="none" stroke="#d97706" stroke-width="2"/>
  <text x="385" y="1247" fill="#94a3b8" font-size="10">pipeline function</text>
  <rect x="482" y="1236" width="12" height="12" rx="2" fill="none" stroke="#34d399" stroke-width="2"/>
  <text x="500" y="1247" fill="#94a3b8" font-size="10">always-on resource</text>
  <rect x="614" y="1236" width="12" height="12" rx="2" fill="none" stroke="#f87171" stroke-width="2" stroke-dasharray="4,3"/>
  <text x="632" y="1247" fill="#94a3b8" font-size="10">conditional resource</text>
  <rect x="755" y="1236" width="12" height="12" rx="2" fill="#0c1a2e" stroke="#38bdf8" stroke-width="1.5"/>
  <text x="773" y="1247" fill="#94a3b8" font-size="10">status output</text>

  <text x="470" y="1292" text-anchor="middle" fill="#334155" font-size="10">Platform-XP-EKS · Crossplane XRD Composition Pipeline</text>
</svg>
